HIERARCHY
ROOT Hips
{
	OFFSET 0.000000 0.000000 0.000000
	CHANNELS 6 Xposition Yposition Zposition Zrotation Yrotation Xrotation 
	JOINT LowerBack
	{
		OFFSET 0.000000 0.000000 0.000000
		CHANNELS 3 Zrotation Yrotation Xrotation
		JOINT Spine
		{
			OFFSET 0.028270 2.035590 -0.193380
			CHANNELS 3 Zrotation Yrotation Xrotation
			JOINT Spine1
			{
				OFFSET 0.056720 2.048850 -0.042750
				CHANNELS 3 Zrotation Yrotation Xrotation
				JOINT Neck
				{
					OFFSET 0.000000 0.000000 0.000000
					CHANNELS 3 Zrotation Yrotation Xrotation
					JOINT Neck1
					{
						OFFSET -0.054170 1.746240 0.172020
						CHANNELS 3 Zrotation Yrotation Xrotation
						JOINT Head
						{
							OFFSET 0.104070 1.761360 -0.123970
							CHANNELS 3 Zrotation Yrotation Xrotation
							End Site
							{
								OFFSET 0.000000 0.000000 0.000000
							}
						}
					}
				}
				JOINT LeftShoulder
				{
					OFFSET 0.000000 0.000000 0.000000
					CHANNELS 3 Zrotation Yrotation Xrotation
					JOINT LeftArm
					{
						OFFSET 3.362410 1.200890 -0.311210
						CHANNELS 3 Zrotation Yrotation Xrotation
						JOINT LeftForeArm
						{
							OFFSET 4.983000 -0.000000 -0.000000
							CHANNELS 3 Zrotation Yrotation Xrotation
							JOINT LeftHand
							{
								OFFSET 3.483560 -0.000000 -0.000000
								CHANNELS 3 Zrotation Yrotation Xrotation
								JOINT LeftFingerBase
								{
									OFFSET 0.000000 0.000000 0.000000
									CHANNELS 3 Zrotation Yrotation Xrotation
									JOINT LeftHandIndex1
									{
										OFFSET 0.715260 -0.000000 -0.000000
										CHANNELS 3 Zrotation Yrotation Xrotation
										End Site
										{
											OFFSET 0.000000 0.000000 0.000000
										}
									}
								}
								JOINT LThumb
								{
									OFFSET 0.000000 0.000000 0.000000
									CHANNELS 3 Zrotation Yrotation Xrotation
									End Site
									{
										OFFSET 0.000000 0.000000 0.000000
									}
								}
							}
						}
					}
				}
				JOINT RightShoulder
				{
					OFFSET 0.000000 0.000000 0.000000
					CHANNELS 3 Zrotation Yrotation Xrotation
					JOINT RightArm
					{
						OFFSET -3.136600 1.374050 -0.404650
						CHANNELS 3 Zrotation Yrotation Xrotation
						JOINT RightForeArm
						{
							OFFSET -5.241900 -0.000000 -0.000000
							CHANNELS 3 Zrotation Yrotation Xrotation
							JOINT RightHand
							{
								OFFSET -3.444170 -0.000000 -0.000000
								CHANNELS 3 Zrotation Yrotation Xrotation
								JOINT RightFingerBase
								{
									OFFSET 0.000000 0.000000 0.000000
									CHANNELS 3 Zrotation Yrotation Xrotation
									JOINT RightHandIndex1
									{
										OFFSET -0.622530 -0.000000 -0.000000
										CHANNELS 3 Zrotation Yrotation Xrotation
										End Site
										{
											OFFSET 0.000000 0.000000 0.000000
										}
									}
								}
								JOINT RThumb
								{
									OFFSET 0.000000 0.000000 0.000000
									CHANNELS 3 Zrotation Yrotation Xrotation
									End Site
									{
										OFFSET 0.000000 0.000000 0.000000
									}
								}
							}
						}
					}
				}
			}
		}
	}
}
}
MOTION
Frames: 12
Frame Time: 0.008333
2.388880 16.534583 -1.138774 -175.353358 -80.202646 -158.961027 -7.296840 1.557509 4.406112 -2.857283 1.850237 -2.317341 -7.961535 1.724341 0.041286 9.444073 7.904542 5.269628 -5.068702 -0.446900 2.927364 0.000000 0.000000 0.000000 -5.534045 -3.086973 2.626025 -51.652784 -7.218842 14.061522 -4.166355 -21.570725 -0.001884 1.028429 1.276224 0.013255 -0.122190 0.003998 -0.000000 0.000000 0.000000 0.000000 0.000000 0.000000 0.000000 21.755278 7.118961 -0.452289 71.349733 23.890241 23.987072 1.973923 35.818232 0.005941 3.700772 9.010143 0.299950 -0.032233 -0.164728 0.000000 0.000000 0.000000 0.000000 0.000000 0.000000 0.000000 
2.214762 16.516623 -1.155428 -178.212629 -80.283017 -156.219231 -8.072993 1.523301 4.602601 -3.029151 1.846560 -2.286767 -8.012007 1.721109 -0.023162 9.572924 8.124001 5.552911 -5.101284 -0.449989 2.984317 0.000000 0.000000 0.000000 -5.552062 -3.640840 2.674028 -51.233663 -7.695749 13.694904 -4.231335 -20.450305 -0.002209 1.187537 1.378296 0.016141 -0.122187 0.007363 -0.000000 0.000000 0.000000 0.000000 0.000000 0.000000 0.000000 22.029820 7.178894 -0.523544 71.855249 23.660516 22.447782 1.929594 35.063910 0.004819 3.377741 9.332351 0.283744 -0.033139 -0.167114 0.000000 0.000000 0.000000 0.000000 0.000000 0.000000 0.000000 
2.046120 16.508199 -1.168679 179.237905 -80.342962 -153.779575 -8.723819 1.507948 4.825497 -3.173196 1.856591 -2.246460 -8.037694 1.732500 -0.083814 9.580372 8.355993 5.859907 -5.119354 -0.452311 3.047331 0.000000 0.000000 0.000000 -5.619094 -4.237617 2.715351 -50.912218 -8.305788 13.127322 -4.292033 -19.144656 -0.002669 1.375592 1.518631 0.020126 -0.121440 0.012490 -0.000000 0.000000 0.000000 0.000000 0.000000 0.000000 0.000000 22.110302 7.250373 -0.604354 72.448608 23.455555 20.714484 1.882886 34.192437 0.003508 2.925019 9.659296 0.254640 -0.032559 -0.169050 0.000000 0.000000 0.000000 0.000000 0.000000 0.000000 0.000000 
1.882437 16.508762 -1.177363 177.114050 -80.372224 -151.763551 -9.231191 1.513048 5.071946 -3.285517 1.881397 -2.193308 -8.040630 1.760264 -0.124305 9.459248 8.607870 6.171604 -5.124193 -0.453700 3.111291 0.000000 0.000000 0.000000 -5.745022 -4.759631 2.745420 -50.695819 -9.186746 12.407920 -4.348524 -17.595489 -0.003270 1.612046 1.682649 0.025507 -0.120099 0.019798 -0.000000 0.000000 0.000000 0.000000 0.000000 0.000000 0.000000 21.994789 7.346353 -0.699326 73.102506 23.280929 18.826228 1.833779 33.242010 0.002067 2.361165 9.970172 0.212535 -0.030631 -0.170343 0.000000 0.000000 0.000000 0.000000 0.000000 0.000000 0.000000 
1.723011 16.517529 -1.180712 175.472507 -80.369440 -150.238035 -9.589116 1.538693 5.333742 -3.364789 1.921069 -2.131700 -8.023382 1.803844 -0.152113 9.213836 8.879186 6.494088 -5.119300 -0.454490 3.178492 0.000000 0.000000 0.000000 -5.919213 -5.256545 2.764502 -50.601297 -10.233871 11.444729 -4.392098 -15.874272 -0.004037 1.917133 1.868155 0.033086 -0.117629 0.029089 -0.000000 0.000000 0.000000 0.000000 0.000000 0.000000 0.000000 21.704127 7.467296 -0.797365 73.775819 23.130535 16.857117 1.785051 32.242902 0.000593 1.705558 10.251199 0.158332 -0.027367 -0.171078 0.000000 0.000000 0.000000 0.000000 0.000000 0.000000 0.000000 
1.566943 16.533560 -1.178388 174.329183 -80.337226 -149.224534 -9.800509 1.580749 5.603703 -3.412053 1.972048 -2.061673 -7.991512 1.859798 -0.160271 8.857478 9.166130 6.816372 -5.108841 -0.454797 3.245945 0.000000 0.000000 0.000000 -6.137181 -5.681697 2.771281 -50.623469 -11.475237 10.256727 -4.417648 -13.999417 -0.004987 2.316551 2.056144 0.043163 -0.113833 0.040260 -0.000000 0.000000 0.000000 0.000000 0.000000 0.000000 0.000000 21.271197 7.610377 -0.896930 74.431319 23.005728 14.885129 1.739628 31.231675 -0.000810 0.995485 10.484255 0.095228 -0.022970 -0.171184 0.000000 0.000000 0.000000 0.000000 0.000000 0.000000 0.000000 
1.413167 16.555848 -1.170650 173.658906 -80.281212 -148.700164 -9.876383 1.634010 5.871281 -3.430375 2.030025 -1.986465 -7.950969 1.923385 -0.151585 8.412264 9.463859 7.137182 -5.097369 -0.454889 3.313431 0.000000 0.000000 0.000000 -6.384574 -6.050672 2.767369 -50.754713 -12.846096 8.839954 -4.417363 -12.049415 -0.006153 2.834986 2.229817 0.056236 -0.108327 0.052812 -0.000000 0.000000 0.000000 0.000000 0.000000 0.000000 0.000000 20.740151 7.770459 -0.991828 75.032997 22.897848 12.990774 1.701355 30.240974 -0.002022 0.277553 10.651459 0.028225 -0.017718 -0.170651 0.000000 0.000000 0.000000 0.000000 0.000000 0.000000 0.000000 
1.260669 16.583366 -1.158012 173.420030 -80.206291 -148.620158 -9.832616 1.691413 6.128070 -3.424462 2.089072 -1.904387 -7.910571 1.989122 -0.112672 7.904900 9.758367 7.435139 -5.089840 -0.454767 3.374698 0.000000 0.000000 0.000000 -6.661822 -6.275912 2.751796 -50.963842 -14.426244 7.328028 -4.389806 -10.046184 -0.007581 3.484385 2.360635 0.072109 -0.101264 0.066309 -0.000000 0.000000 0.000000 0.000000 0.000000 0.000000 0.000000 20.160902 7.933531 -1.086581 75.555278 22.816384 11.257588 1.674051 29.299506 -0.002939 -0.394005 10.734732 -0.036279 -0.011968 -0.169261 0.000000 0.000000 0.000000 0.000000 0.000000 0.000000 0.000000 
1.108667 16.615227 -1.141452 173.545737 -80.118533 -148.914973 -9.690126 1.747231 6.361730 -3.399590 2.144523 -1.820828 -7.875767 2.051604 -0.053211 7.366001 10.044903 7.713898 -5.089539 -0.454685 3.430991 0.000000 0.000000 0.000000 -6.948711 -6.406940 2.728976 -51.239134 -16.097222 5.768546 -4.331360 -8.117894 -0.009308 4.263606 2.437053 0.089979 -0.092583 0.079810 -0.000000 0.000000 0.000000 0.000000 0.000000 0.000000 0.000000 19.580622 8.094863 -1.174513 75.976943 22.743634 9.743634 1.661083 28.431359 -0.003473 -0.963144 10.719526 -0.090981 -0.006158 -0.166965 0.000000 0.000000 0.000000 0.000000 0.000000 0.000000 0.000000 
0.956473 16.650616 -1.122197 173.956347 -80.024431 -149.499136 -9.473737 1.796969 6.559434 -3.361287 2.192793 -1.744013 -7.848299 2.106078 0.007245 6.826537 10.313487 7.986889 -5.099560 -0.455028 3.486586 0.000000 0.000000 0.000000 -7.203551 -6.562661 2.704807 -51.588265 -17.642231 4.178129 -4.240148 -6.451794 -0.011311 5.153907 2.461009 0.108548 -0.082325 0.092154 -0.000000 0.000000 0.000000 0.000000 0.000000 0.000000 0.000000 19.045576 8.243355 -1.243183 76.280577 22.662129 8.503529 1.665140 27.648486 -0.003584 -1.380792 10.595739 -0.129783 -0.000713 -0.163760 0.000000 0.000000 0.000000 0.000000 0.000000 0.000000 0.000000 
0.803566 16.688832 -1.101411 174.585267 -79.928421 -150.293185 -9.205965 1.834783 6.717309 -3.315175 2.228883 -1.669639 -7.835322 2.148538 0.088884 6.313582 10.549701 8.222779 -5.121484 -0.455486 3.532449 0.000000 0.000000 0.000000 -7.441324 -6.597737 2.676356 -51.979890 -19.236591 2.811673 -4.131628 -5.013717 -0.013532 6.098527 2.410464 0.124619 -0.071844 0.103109 -0.000000 0.000000 0.000000 0.000000 0.000000 0.000000 0.000000 18.590693 8.365241 -1.305842 76.468833 22.587254 7.568646 1.686840 26.971245 -0.003257 -1.600641 10.359813 -0.147484 0.003874 -0.159298 0.000000 0.000000 0.000000 0.000000 0.000000 0.000000 0.000000 
0.649901 16.729348 -1.080319 175.350192 -79.836401 -151.209047 -8.911350 1.857908 6.830260 -3.266076 2.250516 -1.602262 -7.836814 2.176171 0.180387 5.851532 10.740844 8.425236 -5.155926 -0.456200 3.570138 0.000000 0.000000 0.000000 -7.634085 -6.574696 2.645681 -52.427279 -20.770242 1.700408 -4.014273 -3.895542 -0.015811 7.036626 2.285770 0.134992 -0.061873 0.112125 -0.000000 0.000000 0.000000 0.000000 0.000000 0.000000 0.000000 18.244213 8.446523 -1.356736 76.540753 22.515673 6.962706 1.726115 26.404389 -0.002536 -1.596756 10.018265 -0.142587 0.007232 -0.153553 0.000000 0.000000 0.000000 0.000000 0.000000 0.000000 0.000000 
